<mxfile host="65bd71144e">
    <diagram id="iCbZnR2ins8FDUB22YtI" name="ページ1">
        <mxGraphModel dx="1359" dy="889" grid="1" gridSize="10" guides="1" tooltips="1" connect="1" arrows="1" fold="1" page="1" pageScale="1" pageWidth="1169" pageHeight="827" math="0" shadow="0">
            <root>
                <mxCell id="0"/>
                <mxCell id="1" parent="0"/>
                <mxCell id="34" value="" style="group;fillStyle=auto;fillColor=default;" parent="1" vertex="1" connectable="0">
                    <mxGeometry x="180" y="70" width="729.73" height="710" as="geometry"/>
                </mxCell>
                <mxCell id="31" value="&lt;font style=&quot;font-size: 14px;&quot;&gt;Software Features&lt;/font&gt;" style="swimlane;horizontal=0;whiteSpace=wrap;html=1;" parent="34" vertex="1">
                    <mxGeometry width="729.73" height="315.5555555555556" as="geometry">
                        <mxRectangle x="90" y="80" width="40" height="150" as="alternateBounds"/>
                    </mxGeometry>
                </mxCell>
                <mxCell id="27" value="Auto Feeding" style="rounded=0;whiteSpace=wrap;html=1;fontSize=14;fillColor=#0050ef;fontColor=#ffffff;strokeColor=#001DBC;" parent="31" vertex="1">
                    <mxGeometry x="65.74144144144144" y="118.33333333333333" width="157.77945945945945" height="78.8888888888889" as="geometry"/>
                </mxCell>
                <mxCell id="28" value="Manual Feeding" style="rounded=0;whiteSpace=wrap;html=1;fontSize=14;fillColor=#0050ef;fontColor=#ffffff;strokeColor=#001DBC;" parent="31" vertex="1">
                    <mxGeometry x="285.9752702702703" y="118.33333333333333" width="157.77945945945945" height="78.8888888888889" as="geometry"/>
                </mxCell>
                <mxCell id="29" value="Execution Status Indication" style="rounded=0;whiteSpace=wrap;html=1;fontSize=14;fillColor=#0050ef;fontColor=#ffffff;strokeColor=#001DBC;" parent="31" vertex="1">
                    <mxGeometry x="512.7832432432433" y="118.33333333333333" width="157.77945945945945" height="78.8888888888889" as="geometry"/>
                </mxCell>
                <mxCell id="33" value="&lt;font style=&quot;font-size: 14px;&quot;&gt;Hardware Components&lt;/font&gt;" style="swimlane;horizontal=0;whiteSpace=wrap;html=1;" parent="34" vertex="1">
                    <mxGeometry y="315.5555555555556" width="729.73" height="394.4444444444445" as="geometry">
                        <mxRectangle x="250" y="250" width="40" height="150" as="alternateBounds"/>
                    </mxGeometry>
                </mxCell>
                <mxCell id="37" style="edgeStyle=elbowEdgeStyle;elbow=vertical;html=1;exitX=0.5;exitY=1;exitDx=0;exitDy=0;entryX=0.5;entryY=0;entryDx=0;entryDy=0;fontSize=14;strokeWidth=2;startArrow=classic;startFill=1;" parent="33" source="16" target="17" edge="1">
                    <mxGeometry relative="1" as="geometry"/>
                </mxCell>
                <mxCell id="16" value="Arduino UNO Rev.3" style="rounded=1;whiteSpace=wrap;html=1;fillColor=#0050ef;fontColor=#ffffff;strokeColor=#001DBC;fontSize=14;" parent="33" vertex="1">
                    <mxGeometry x="65.74144144144144" y="46.018518518518526" width="604.8212612612613" height="78.8888888888889" as="geometry"/>
                </mxCell>
                <mxCell id="42" value="" style="edgeStyle=none;html=1;strokeWidth=2;fontSize=14;elbow=vertical;" parent="33" source="17" target="22" edge="1">
                    <mxGeometry relative="1" as="geometry"/>
                </mxCell>
                <mxCell id="17" value="Micro Servo&lt;br style=&quot;font-size: 14px;&quot;&gt;(SG90)" style="rounded=1;whiteSpace=wrap;html=1;fillColor=#0050ef;fontColor=#ffffff;strokeColor=#001DBC;fontSize=14;" parent="33" vertex="1">
                    <mxGeometry x="289.2623423423423" y="156.46296296296296" width="157.77945945945945" height="78.8888888888889" as="geometry"/>
                </mxCell>
                <mxCell id="41" value="" style="edgeStyle=none;html=1;strokeWidth=2;fontSize=14;elbow=vertical;" parent="33" target="20" edge="1">
                    <mxGeometry relative="1" as="geometry">
                        <mxPoint x="590" y="124.4444444444444" as="sourcePoint"/>
                    </mxGeometry>
                </mxCell>
                <mxCell id="20" value="Status LED" style="rounded=1;whiteSpace=wrap;html=1;fillColor=#0050ef;fontColor=#ffffff;strokeColor=#001DBC;fontSize=14;" parent="33" vertex="1">
                    <mxGeometry x="512.7832432432433" y="156.46296296296296" width="157.77945945945945" height="78.8888888888889" as="geometry"/>
                </mxCell>
                <mxCell id="40" style="edgeStyle=none;html=1;exitX=0.5;exitY=0;exitDx=0;exitDy=0;entryX=0.131;entryY=1.007;entryDx=0;entryDy=0;entryPerimeter=0;strokeWidth=2;fontSize=14;elbow=vertical;" parent="33" source="21" target="16" edge="1">
                    <mxGeometry relative="1" as="geometry"/>
                </mxCell>
                <mxCell id="21" value="Push Button" style="rounded=1;whiteSpace=wrap;html=1;fillColor=#0050ef;fontColor=#ffffff;strokeColor=#001DBC;fontSize=14;" parent="33" vertex="1">
                    <mxGeometry x="65.74144144144144" y="156.46296296296296" width="157.77945945945945" height="78.8888888888889" as="geometry"/>
                </mxCell>
                <mxCell id="22" value="Feeder Hardware Components&lt;br style=&quot;font-size: 14px;&quot;&gt;(plastic toy container, obsoleted credit card)" style="rounded=1;whiteSpace=wrap;html=1;fillColor=#0050ef;fontColor=#ffffff;strokeColor=#001DBC;fontSize=14;" parent="33" vertex="1">
                    <mxGeometry x="65.74144144144144" y="269.53703703703707" width="604.8212612612613" height="78.8888888888889" as="geometry"/>
                </mxCell>
            </root>
        </mxGraphModel>
    </diagram>
</mxfile>